<?xml version="1.0" encoding="utf-8"?>
<!-- Svg Vector Icons : http://www.onlinewebfonts.com/icon -->
<!DOCTYPE svg PUBLIC "-//W3C//DTD SVG 1.1//EN" "http://www.w3.org/Graphics/SVG/1.1/DTD/svg11.dtd">
<svg version="1.1" xmlns="http://www.w3.org/2000/svg" xmlns:xlink="http://www.w3.org/1999/xlink" x="0px" y="0px" viewBox="0 0 1000 1000" enable-background="new 0 0 1000 1000" xml:space="preserve">
<metadata> Svg Vector Icons : http://www.onlinewebfonts.com/icon </metadata>
<g><path d="M501.9,10C771.4,10.7,990.7,231.8,990,501.9C989.2,771.5,768.3,990.7,498.1,990C228.5,989.3,9.3,768.3,10,498.1C10.7,228.5,231.7,9.3,501.9,10z M138.4,381.2c27.3,16.8,44.2,30.3,63.3,38.5c64.2,27.5,130.7,50,193.4,80.4c72.2,35,139,34.7,210.2-3.4c52.8-28.3,110.7-47.1,170.4-71.8c2.9,49.1,14.9,93.2-28.1,121.2c17,18,31.6,33.6,48.2,51.1c16.4-17.6,31.8-34.1,46.7-50.1c-34.2-42.4-30.8-121.6,6.4-169.7c-11.2-6.6-21.5-14.5-33.1-19.2c-93.5-37.7-186.8-76.3-281.5-111c-19.8-7.3-46.9-5.2-67.4,2c-90.2,31.7-179.4,66.6-268.7,101.1C181.1,357,165.2,367.3,138.4,381.2z M303,521c0,52.3-0.7,103.9,0.7,155.4c0.2,8.5,7.9,18.9,15.1,24.9c93.9,78.5,258.9,79.3,354.7,1.6c8.3-6.7,17.8-17.9,18.1-27.3c1.7-55.1,0.8-110.3,0.8-166.4C631.4,524.2,362.8,532.4,303,521z"/></g>
</svg>