<?xml version="1.0" standalone="no"?>
<!DOCTYPE svg PUBLIC "-//W3C//DTD SVG 1.1//EN" "http://www.w3.org/Graphics/SVG/1.1/DTD/svg11.dtd">
<svg xmlns="http://www.w3.org/2000/svg">
<defs >
<font id="HeptaSlab" horiz-adv-x="1327" ><font-face
    font-family="Hepta Slab ExtraLight SemiBold"
    units-per-em="2000"
    panose-1="0 0 0 0 0 0 0 0 0 0"
    ascent="1976"
    descent="-526"
    alphabetic="0" />
<glyph unicode=" " horiz-adv-x="586" />
<glyph unicode="!" horiz-adv-x="664" d="M193 1510H487L441 416H238L193 1510ZM180 294H485V0H180V294Z" />
<glyph unicode="&quot;" horiz-adv-x="824" d="M136 1510H363L334 993H165L136 1510ZM461 1510H688L659 993H490L461 1510Z" />
<glyph unicode="#" horiz-adv-x="1411" d="M734 1504L406 0H194L522 1504H734ZM1217 1504L889 0H676L1004 1504H1217ZM1313 1086V892H188V1086H1313ZM1223 612V419H98V612H1223Z" />
<glyph unicode="$" horiz-adv-x="1457" d="M790 1704V-200H710V1704H790ZM857 -20Q661 -20 546 61T408 296H362L399 462Q423 332 532 256T804 180Q945 180 1021 237T1097 401Q1097 474 1061 522T946 601T732 650Q536 675 406 736T210 895T144 1125Q144 1316 270
1423T620 1531Q747 1531 837 1495T979 1387T1044 1209H1090L1053 1049Q1030 1177 925 1254T670 1331Q547 1331 475 1281T403 1144Q403 1082 440 1037T559 959T771 903Q977 874 1106 815T1295 660T1355 422Q1355 213 1225 97T857 -20ZM147 0V462H399V0H147ZM1053
1049V1510H1305V1049H1053Z" />
<glyph unicode="%" horiz-adv-x="1782" d="M214 -2L1305 1512H1567L476 -2H214ZM448 737Q347 737 271 786T153 926T111 1137Q111 1318 203 1427T448 1536Q548 1536 623 1487T741 1348T784 1137Q784 1015 742 925T624 786T448 737ZM448 925Q488 925 518 949T566
1020T583 1137Q583 1207 566 1254T519 1324T448 1348Q407 1348 377 1325T329 1254T312 1137Q312 1068 329 1021T376 949T448 925ZM1335 -22Q1234 -22 1158 27T1040 165T998 375Q998 497 1040 586T1158 723T1335 772Q1435 772 1511 724T1629 586T1671 375Q1671 255
1630 166T1512 28T1335 -22ZM1335 165Q1375 165 1405 189T1453 261T1470 375Q1470 445 1453 492T1406 564T1335 588Q1295 588 1264 564T1216 493T1199 375Q1199 306 1216 260T1263 189T1335 165Z" />
<glyph unicode="&amp;" horiz-adv-x="1639" d="M1466 221H1586V0H1356L502 706Q402 787 338 858T244 1002T213 1161Q213 1281 266 1363T416 1488T641 1531L646 1336Q559 1336 505 1286T450 1154Q450 1094 479 1042T555 945T654 858L1466 221ZM1285 1086H1517Q1476
746 1363 498T1065 115T621 -20Q447 -20 326 40T143 204T80 436Q80 619 209 730T571 889L595 886Q720 933 778 1000T836 1153Q836 1241 782 1288T646 1336L641 1531Q773 1531 870 1487T1021 1360T1074 1161Q1074 1004 968 893T652 704L629 705Q476 669 399 604T321
436Q321 363 358 309T463 224T626 194Q812 194 945 303T1162 612T1285 1086Z" />
<glyph unicode="&apos;" horiz-adv-x="499" d="M136 1510H363L334 993H165L136 1510Z" />
<glyph unicode="(" horiz-adv-x="692" d="M373 582Q373 338 419 145T538 -190T691 -420H414Q292 -247 214 5T135 582Q135 906 217 1159T429 1584H691Q611 1496 538 1355T419 1020T373 582Z" />
<glyph unicode=")" horiz-adv-x="692" d="M319 582Q319 826 273 1019T154 1354T1 1584H278Q400 1411 478 1159T557 582Q557 258 475 5T263 -420H1Q81 -332 154 -191T273 144T319 582Z" />
<glyph unicode="*" horiz-adv-x="881" d="M538 1580L480 1214L538 850H343L401 1214L343 1580H538ZM708 1481L805 1313L459 1180L173 947L76 1117L421 1250L708 1481ZM173 1481L460 1250L805 1117L708 947L421 1180L76 1313L173 1481Z" />
<glyph unicode="+" horiz-adv-x="1120" d="M450 292V624H118V820H450V1152H668V820H1002L1000 624H668V292H450Z" />
<glyph unicode="," horiz-adv-x="577" d="M136 294H441V0H136V294ZM291 222H441V-69Q441 -199 364 -273T145 -349V-211Q214 -211 252 -177T291 -71V222Z" />
<glyph unicode="-" horiz-adv-x="732" d="M654 670V474H78V670H654Z" />
<glyph unicode="." horiz-adv-x="577" d="M136 294H441V0H136V294Z" />
<glyph unicode="/" horiz-adv-x="774" d="M799 1580L249 -174H16L566 1580H799Z" />
<glyph unicode="0" horiz-adv-x="1406" d="M703 -24Q515 -24 383 70T181 339T111 758Q111 1001 180 1174T382 1441T703 1534Q891 1534 1023 1441T1225 1175T1295 758Q1295 514 1226 339T1024 70T703 -24ZM703 218Q869 218 954 359T1039 759Q1039 1015 954 1153T703
1292Q538 1292 453 1154T367 759Q367 501 452 360T703 218Z" />
<glyph unicode="1" horiz-adv-x="1028" d="M513 1510H676V221H966V0H133V221H424V1385L513 1510ZM142 1343H248Q306 1343 349 1363T420 1420T455 1510H535L471 1268H415Q388 1177 338 1141T206 1104H142V1343Z" />
<glyph unicode="2" horiz-adv-x="1323" d="M1253 405Q1253 195 1159 88T891 -19Q833 -19 783 -9T688 16T602 42T518 53Q481 53 442 41T366 0H273L338 249L394 204Q428 241 474 260T578 280Q620 280 654 271T721 250T786 228T859 218Q935 218 969 260T1004 405H1253ZM669
733Q786 822 853 899T920 1071Q920 1135 890 1186T802 1267T664 1297Q539 1297 466 1225T386 1026L134 1044Q144 1196 212 1306T397 1475T669 1534Q829 1534 944 1474T1121 1311T1183 1081Q1183 976 1141 884T1015 710T812 550L554 366Q482 321 432 270T357 153T332
0H117V28Q117 143 150 235T252 406T429 554L669 733Z" />
<glyph unicode="3" horiz-adv-x="1254" d="M61 453L308 493Q332 361 411 286T622 211Q705 211 765 240T857 320T889 437Q889 512 847 568T729 656T549 688V832Q733 832 869 782T1079 636T1154 407Q1154 284 1093 187T914 35T625 -21Q372 -21 236 104T61 453ZM97
1075Q115 1303 247 1419T609 1535Q764 1535 876 1486T1048 1348T1109 1143Q1109 1023 1040 934T844 796T549 748V892Q637 892 703 919T807 996T845 1110Q845 1166 816 1210T734 1278T606 1303Q492 1303 425 1242T345 1057L97 1075ZM459 892H549V688H459V892Z" />
<glyph unicode="4" horiz-adv-x="1320" d="M1024 1510V221H1229V0H528V221H775V1344L690 1510H1024ZM1229 644V459H63V644H1229ZM690 1510L880 1430L239 538L63 644L690 1510Z" />
<glyph unicode="5" horiz-adv-x="1329" d="M159 290L405 383Q444 304 516 262T683 219Q773 219 843 256T953 360T993 516Q993 605 954 671T847 774T689 811Q579 811 493 753T383 594L369 753L415 751Q433 847 476 911T588 1007T754 1039Q898 1039 1012 973T1193
789T1260 516Q1260 355 1186 235T982 47T683 -20Q493 -20 357 62T159 290ZM516 1510L383 594L146 638L264 1510H516ZM416 1289V1510H1149V1289H416Z" />
<glyph unicode="6" horiz-adv-x="1354" d="M702 219Q787 219 854 251T959 346T997 496Q997 583 960 646T857 744T704 779Q619 779 554 745T451 649T413 501L383 537L351 578H391L393 592Q411 723 459 813T587 950T784 997Q923 997 1031 931T1202 750T1264 489Q1264
337 1196 222T1003 43T704 -21L702 219ZM704 -21Q509 -21 384 63T191 300Q152 391 132 506T111 759Q111 995 174 1169T370 1439T715 1534Q910 1534 1047 1450T1257 1203L1014 1098Q968 1195 894 1241T713 1288Q582 1288 507 1222T399 1037T367 757Q367 705 371
656T386 558L413 501Q413 414 448 351T547 253T702 219L704 -21Z" />
<glyph unicode="7" horiz-adv-x="1285" d="M1292 1510L657 0H376L997 1421L1035 1510H1292ZM327 1288Q333 1405 373 1463T496 1522Q536 1522 576 1512T660 1488T748 1464T843 1453Q892 1453 950 1467T1035 1510L974 1294L940 1311Q903 1267 857 1245T758 1223Q717
1223 677 1232T597 1253T522 1274T454 1284Q396 1284 358 1247T319 1138L257 1288H327ZM319 1510V1006H67V1510H319Z" />
<glyph unicode="8" horiz-adv-x="1334" d="M667 -21Q497 -21 370 34T171 188T100 415Q100 544 170 643T369 798T667 854Q838 854 965 798T1163 643T1234 415Q1234 287 1163 189T965 35T667 -21ZM667 210Q756 210 824 241T930 326T969 453Q969 525 931 580T824
667T667 698Q578 698 510 667T404 581T365 453Q365 381 403 327T510 241T667 210ZM667 732Q509 732 391 782T206 922T140 1128Q140 1246 205 1337T390 1480T667 1532Q826 1532 944 1481T1128 1338T1194 1128Q1194 1012 1128 923T944 783T667 732ZM667 888Q744 888
803 914T895 986T929 1092Q929 1154 896 1201T803 1275T667 1302Q590 1302 531 1276T439 1202T405 1092Q405 1032 438 986T531 914T667 888Z" />
<glyph unicode="9" horiz-adv-x="1354" d="M652 1296Q567 1296 500 1264T395 1169T357 1019Q357 932 394 869T497 771T650 736Q735 736 800 770T903 866T941 1014L971 978L1003 937H963L961 923Q943 792 895 702T767 565T570 518Q431 518 323 584T152 765T90 1026Q90
1178 158 1293T351 1472T650 1536L652 1296ZM650 1536Q845 1536 970 1452T1163 1215Q1202 1124 1222 1009T1243 756Q1243 520 1180 346T984 76T639 -19Q444 -19 307 65T97 312L340 417Q386 320 460 274T641 227Q772 227 847 293T955 478T987 758Q987 810 983 859T968
957L941 1014Q941 1101 906 1164T807 1262T652 1296L650 1536Z" />
<glyph unicode=":" horiz-adv-x="577" d="M136 294H441V0H136V294ZM136 971H441V677H136V971Z" />
<glyph unicode=";" horiz-adv-x="582" d="M141 971H446V677H141V971ZM136 294H441V0H136V294ZM291 222H441V-69Q441 -199 364 -273T145 -349V-211Q214 -211 252 -177T291 -71V222Z" />
<glyph unicode="&lt;" horiz-adv-x="1115" d="M958 970L296 727V721L958 478V238L70 598V850L958 1211V970Z" />
<glyph unicode="=" horiz-adv-x="1221" d="M1100 1032V836H121V1032H1100ZM1100 612V416H121V612H1100Z" />
<glyph unicode="&gt;" horiz-adv-x="1115" d="M157 970L819 727V721L157 478V238L1045 598V850L157 1211V970Z" />
<glyph unicode="?" horiz-adv-x="1176" d="M105 851Q83 902 73 951T63 1050Q63 1195 134 1303T328 1471T604 1531Q771 1531 890 1468T1074 1297T1139 1055Q1139 956 1109 886T1031 767T929 680T828 609T749 538T719 450V403H468V455Q468 539 497 597T573 700T671
782T769 857T844 942T874 1054Q874 1118 843 1172T751 1260T604 1294Q523 1294 460 1264T359 1180T322 1049Q322 1022 328 995T346 937L105 851ZM439 283H746V0H439V283Z" />
<glyph unicode="@" horiz-adv-x="2192" d="M979 -441Q782 -437 620 -373T339 -192T158 83T94 438Q94 680 173 880T401 1226T752 1451T1202 1531Q1403 1531 1569 1471T1855 1298T2040 1028T2106 676L1882 666Q1882 869 1796 1018T1556 1247T1202 1328Q1006 1328
844 1264T564 1081T382 800T317 438Q317 239 401 87T634 -151T979 -238Q1118 -238 1237 -205T1455 -109L1568 -276Q1448 -355 1300 -400T979 -441ZM911 12Q814 12 731 66T598 222T546 466Q545 577 579 685T679 880T841 1020T1061 1072Q1185 1072 1279 1018T1426
862T1482 620Q1483 546 1466 472T1418 325L1315 288L1278 297Q1228 202 1172 139T1050 44T911 12ZM1006 227Q1079 227 1139 260T1243 350T1310 477T1334 619Q1334 736 1270 798T1105 860Q1002 860 933 801T828 652T793 469Q794 347 855 287T1006 227ZM1586 12Q1473
12 1402 62T1304 204T1303 417L1477 644L1357 728L1436 1044H1681L1530 443Q1505 347 1522 281T1623 214Q1668 214 1713 240T1797 321T1858 461T1882 666L2106 676Q2106 517 2064 394T1947 185T1780 56T1586 12Z" />
<glyph unicode="A" horiz-adv-x="1623" d="M1219 677V472H402V677H1219ZM1472 221H1599V0H935V221H1203L766 1355L902 1235H706L837 1355L400 221H672V0H24V221H152L663 1510H962L1472 221Z" />
<glyph unicode="B" horiz-adv-x="1495" d="M671 1289V1510H864Q1090 1510 1219 1412T1349 1121Q1349 930 1217 842T832 753H434V865H834Q925 865 980 896T1060 977T1085 1086Q1085 1188 1013 1238T822 1289H671ZM651 221H848Q980 221 1060 277T1141 442Q1141 488
1124 527T1071 596T978 642T838 658H434V799H838Q975 799 1080 779T1258 713T1368 594T1405 415Q1405 218 1279 109T930 0H651V221ZM54 1289V1510H717V1289H510V221H717V0H54V221H258V1289H54ZM997 809H1093V750H997V809Z" />
<glyph unicode="C" horiz-adv-x="1673" d="M852 -25Q683 -25 542 33T298 196T138 444T81 759Q81 930 137 1071T293 1316T530 1476T827 1533Q977 1533 1084 1482T1254 1333T1338 1093H1405L1347 912Q1306 1084 1174 1186T853 1289Q704 1289 590 1222T412 1036T348
759Q348 640 384 541T488 370T647 259T852 219Q978 219 1079 268T1248 407T1341 618L1600 569Q1564 390 1461 257T1203 49T852 -25ZM1347 912V1510H1599V912H1347Z" />
<glyph unicode="D" horiz-adv-x="1669" d="M675 0V221H795Q952 221 1070 289T1255 479T1322 760Q1322 916 1256 1035T1071 1222T795 1289H675V1510H797Q1031 1510 1209 1414T1487 1149T1587 759Q1587 535 1488 364T1210 97T797 0H675ZM54 0V221H258V1289H54V1510H741V1289H510V221H741V0H54Z"
/>
<glyph unicode="E" horiz-adv-x="1604" d="M1061 864V658H395V864H1061ZM1247 485H1499V0H54V221H258V1289H54V1510H1481V1025H1229V1289H510V221H1247V485Z" />
<glyph unicode="F" horiz-adv-x="1443" d="M979 864V658H395V864H979ZM1403 1510V1022H1151V1289H510V221H778V0H54V221H258V1289H54V1510H1403Z" />
<glyph unicode="G" horiz-adv-x="1827" d="M841 -23Q676 -23 537 34T296 197T138 446T81 759Q81 930 137 1071T294 1316T531 1476T828 1533Q976 1533 1082 1483T1252 1334T1336 1096H1404L1346 916Q1305 1086 1173 1187T854 1289Q705 1289 591 1222T413 1036T348
759Q348 640 384 541T488 370T649 259T856 219Q986 219 1091 267T1269 403T1372 609L1538 569Q1503 386 1408 253T1169 49T841 -23ZM1452 0L1354 266V736H1606V0H1452ZM969 556V762H1808V556H969ZM1346 916V1510H1598V916H1346Z" />
<glyph unicode="H" horiz-adv-x="1772" d="M1358 864V658H395V864H1358ZM54 1289V1510H713V1289H510V221H713V0H54V221H258V1289H54ZM1059 1289V1510H1718V1289H1515V221H1718V0H1059V221H1263V1289H1059Z" />
<glyph unicode="I" horiz-adv-x="767" d="M54 1289V1510H713V1289H510V221H713V0H54V221H258V1289H54Z" />
<glyph unicode="J" horiz-adv-x="1238" d="M523 -20Q269 -20 155 114T40 491V596H292V491Q292 359 350 292T521 224Q635 224 693 290T752 491V1289H504V1510H1208V1289H1004V489Q1004 333 953 219T795 43T523 -20Z" />
<glyph unicode="K" horiz-adv-x="1771" d="M54 1289V1510H712V1289H509V221H712V0H54V221H257V1289H54ZM919 932L1544 221H1746V0H869V221H1228L754 770L919 932ZM380 608L1151 1289H861V1510H1659V1289H1471L464 422L380 608Z" />
<glyph unicode="L" horiz-adv-x="1365" d="M54 1289V1510H722V1289H510V221H1168V0H54V221H258V1289H54ZM1325 539V0H1073V539H1325Z" />
<glyph unicode="M" horiz-adv-x="2126" d="M936 0L484 1363L697 1510L1103 260L1038 263L1452 1510L1627 1363L1173 0H936ZM54 0V221H257V1289H54V1510H688L609 1289H493V221H704V0H54ZM1399 0V221H1617V1289H1488L1452 1510H2073V1289H1869V221H2073V0H1399Z" />
<glyph unicode="N" horiz-adv-x="1786" d="M1234 0L324 1510H608L1518 0H1234ZM54 1289V1510H606L580 1220H481V221H684V0H54V221H257V1289H54ZM1127 1289V1510H1757V1289H1554V0H1284L1198 340H1330V1289H1127Z" />
<glyph unicode="O" horiz-adv-x="1743" d="M871 -25Q696 -25 551 32T301 194T139 442T81 759Q81 930 138 1072T301 1317T551 1478T871 1535Q1047 1535 1191 1478T1441 1318T1604 1072T1662 759Q1662 586 1605 443T1442 194T1192 32T871 -25ZM871 220Q1027 220
1145 288T1330 478T1397 759Q1397 917 1330 1037T1145 1223T872 1290Q716 1290 598 1224T413 1037T346 759Q346 600 412 479T597 289T871 220Z" />
<glyph unicode="P" horiz-adv-x="1464" d="M54 0V221H258V1289H54V1510H510V221H713V0H54ZM466 658V864H856Q995 864 1068 916T1142 1074Q1142 1187 1063 1238T853 1289H451V1510H863Q1131 1510 1265 1400T1400 1091Q1400 1017 1376 941T1292 801T1124 697T850 658H466Z" />
<glyph unicode="Q" horiz-adv-x="1739" d="M871 -23Q695 -22 551 35T301 196T138 443T81 759Q81 930 138 1071T301 1316T551 1476T871 1533Q1047 1533 1191 1477T1441 1317T1604 1072T1662 759Q1662 587 1605 444T1442 196T1192 34T871 -23ZM871 221Q1026 221
1144 289T1328 479T1395 759Q1395 916 1329 1035T1144 1222T871 1289Q716 1289 599 1222T415 1036T348 759Q348 601 414 480T598 290T871 221ZM991 52Q950 25 925 5T888 -35T876 -82Q876 -126 905 -143T1000 -161H1585V-373H965Q785 -373 708 -305T631 -120Q631
-7 712 59T987 167L991 52Z" />
<glyph unicode="R" horiz-adv-x="1546" d="M953 814Q1022 800 1082 759T1164 658L1327 221H1473V0H1132L952 532Q928 602 894 629T793 657H699L953 814ZM593 1289V1510H863Q1132 1510 1267 1404T1403 1106Q1403 1014 1371 939T1276 811T1124 731V697L856 657H459V863H853Q948
863 1013 887T1111 961T1145 1084Q1145 1192 1066 1240T855 1289H593ZM54 1289V1510H713V1289H510V221H714V0H54V221H258V1289H54Z" />
<glyph unicode="S" horiz-adv-x="1367" d="M813 -20Q617 -20 501 61T364 297H318L354 462Q379 340 492 269T766 197Q906 197 979 251T1052 408Q1052 479 1016 526T901 603T688 650Q491 675 361 736T165 895T100 1126Q100 1316 226 1423T575 1531Q702 1531 792
1495T934 1388T999 1209H1045L1008 1050Q985 1170 877 1242T617 1315Q496 1315 428 1269T359 1137Q359 1079 396 1035T514 958T726 904Q932 875 1061 816T1250 660T1310 422Q1310 213 1180 97T813 -20ZM102 0V462H354V0H102ZM1008 1050V1510H1260V1050H1008Z" />
<glyph unicode="T" horiz-adv-x="1564" d="M1518 1510V979H1276V1289H908V221H1112V0H452V221H656V1289H287V979H46V1510H1518Z" />
<glyph unicode="U" horiz-adv-x="1675" d="M1010 1510H1650V1289H1454V585Q1454 396 1380 260T1167 51T837 -22Q646 -22 508 51T296 260T221 585V1289H25V1510H682V1289H476V588Q476 472 520 389T646 263T843 219Q960 219 1043 263T1171 389T1216 588V1289H1010V1510Z" />
<glyph unicode="V" horiz-adv-x="1607" d="M1455 1289L950 0H657L152 1289H24V1510H714V1289H421L851 164L710 270H906L784 164L1214 1289H921V1510H1583V1289H1455Z" />
<glyph unicode="W" horiz-adv-x="2399" d="M1767 1510H2374V1289H2252L1834 0H1530L1113 1289L1300 993H1112L1295 1289L866 0H564L147 1289H24V1510H649V1289H408L813 0L614 289H828L638 0L1076 1289H861V1510H1564V1289H1358L1790 0L1587 289H1804L1614 0L2023
1289H1767V1510Z" />
<glyph unicode="X" horiz-adv-x="1622" d="M1435 1289L896 673L980 848V656L917 833L1430 221H1582V0H901V221H1110L733 686L897 610H705L849 686L474 221H709V0H40V221H188L726 839L642 664V856L706 680L192 1289H40V1510H722V1289H512L889 826L725 902H917L774
826L1149 1289H913V1510H1582V1289H1435Z" />
<glyph unicode="Y" horiz-adv-x="1499" d="M1369 1289L862 631H637L130 1289H24V1510H650V1289H432L829 759L659 846H855L709 759L1106 1289H864V1510H1475V1289H1369ZM874 792V221H1079V0H417V221H622V792H874Z" />
<glyph unicode="Z" horiz-adv-x="1342" d="M59 208L948 1293V1353L1277 1303L389 217V152L59 208ZM1277 1510V1303H334V1038H83V1510H1277ZM1048 475H1299V0H59V208H1048V475Z" />
<glyph unicode="[" horiz-adv-x="814" d="M794 1619V1402H454V-243H812V-460H217V1619H794Z" />
<glyph unicode="\" horiz-adv-x="779" d="M-25 1580H213L763 -174H525L-25 1580Z" />
<glyph unicode="]" horiz-adv-x="814" d="M20 1619V1402H360V-243H2V-460H597V1619H20Z" />
<glyph unicode="^" horiz-adv-x="1167" d="M697 1580L1006 932H780L586 1371H581L387 932H160L470 1580H697Z" />
<glyph unicode="_" horiz-adv-x="1000" d="M1000 -112V-309H0V-112H1000Z" />
<glyph unicode="`" horiz-adv-x="598" d="M440 1666L309 1491L698 1246L799 1385L440 1666Z" />
<glyph unicode="a" horiz-adv-x="1281" d="M958 0Q898 0 866 37T833 142V393L853 433L842 555L833 625V707Q833 770 807 811T731 874T608 895Q504 895 443 853T364 723L135 764Q152 877 211 954T372 1070T624 1109Q773 1109 874 1069T1026 944T1077 731V205H1220V0H958ZM452
-16Q281 -16 193 62T104 287Q104 424 185 497T447 605L891 693V550L504 465Q429 449 394 413T358 316Q358 249 399 215T519 181Q614 181 687 227T801 357T842 555L893 319H825Q803 151 708 68T452 -16Z" />
<glyph unicode="b" horiz-adv-x="1394" d="M176 -30V1375H-7V1580H420V716L414 586V427L420 192L186 -30H176ZM748 -22Q623 -22 522 18T348 138T239 332L414 543Q414 440 450 361T558 238T729 193Q833 193 903 236T1009 358T1045 544Q1045 648 1006 726T895 848T729
892Q630 892 560 849T452 726T414 543L383 788H429Q449 887 495 958T617 1069T797 1108Q909 1108 1000 1066T1158 946T1261 766T1297 541Q1297 372 1229 246T1038 49T748 -22Z" />
<glyph unicode="c" horiz-adv-x="1287" d="M678 -21Q501 -21 372 50T172 247T101 539Q101 665 139 768T247 948T412 1065T622 1107Q727 1107 793 1074T894 979T937 832H992L946 655Q936 727 900 781T805 865T668 895Q572 895 501 851T390 727T350 542Q350 440
390 363T504 242T681 198Q784 198 857 242T960 361L1192 273Q1140 136 1005 58T678 -21ZM946 655V1086H1190V655H946Z" />
<glyph unicode="d" horiz-adv-x="1461" d="M974 0V396L980 484V626L974 804V1375H729V1580H1218V205H1396V0H974ZM615 1108Q738 1108 838 1055T1009 898T1116 642L980 546Q980 648 943 726T836 848T664 892Q566 892 495 848T387 726T349 543Q349 439 388 361T499
238T664 193Q763 193 834 237T942 361T980 546L1011 297H965Q945 199 899 128T777 17T596 -22Q485 -22 393 20T235 139T133 319T97 543Q97 712 161 839T341 1037T615 1108Z" />
<glyph unicode="e" horiz-adv-x="1299" d="M668 -21Q492 -21 365 50T168 248T99 539Q99 706 168 834T363 1034T658 1107Q829 1107 952 1035T1141 835T1208 539Q1208 511 1208 494T1205 464H964Q966 483 967 504T968 553Q968 653 932 730T827 851T660 895Q567 895
497 851T387 726T348 539Q348 439 386 362T496 242T668 198Q771 198 845 245T954 373L1188 296Q1128 149 991 64T668 -21ZM254 464V635H1093L1140 464H254Z" />
<glyph unicode="f" horiz-adv-x="926" d="M88 0V205H288V881H88V1086H288V1205Q288 1389 382 1495T680 1601Q841 1601 930 1534T1047 1336L837 1280Q823 1339 786 1368T689 1397Q612 1397 572 1350T532 1205V1086H879V881H532V205H778V0H88Z" />
<glyph unicode="g" horiz-adv-x="1288" d="M632 -446Q481 -446 359 -421T166 -343T94 -202Q94 -115 172 -73T373 -18V8L552 -13Q458 -13 408 -34T339 -85T319 -145Q319 -194 362 -221T477 -259T639 -270Q814 -270 894 -230T974 -114Q974 -13 838 -13H446Q307 -13
226 33T145 172Q145 256 214 302T413 359V400L602 343H514Q450 343 416 326T381 271Q381 236 414 222T516 208H844Q957 208 1039 171T1165 65T1210 -102Q1210 -201 1155 -278T974 -401T632 -446ZM602 343Q465 343 358 390T191 523T130 724Q130 839 190 925T356
1059T601 1107Q739 1107 843 1060T1004 926Q1037 882 1053 831T1069 722Q1069 607 1010 522T845 390T602 343ZM603 532Q668 532 719 556T799 623T829 724Q829 782 800 826T719 894T603 918Q537 918 486 894T405 826T375 724Q375 666 404 623T485 556T603 532ZM1069
722L1004 840L954 913L1007 937Q1003 948 1001 960T999 985Q999 1034 1021 1069T1084 1124T1179 1143Q1194 1143 1207 1142T1231 1138V904Q1205 909 1184 910T1144 912Q1111 912 1092 906T1064 887T1055 858Q1055 845 1058 825T1065 779T1069 722Z" />
<glyph unicode="h" horiz-adv-x="1435" d="M490 205H646V0H63V205H246V1375H63V1580H490V205ZM976 205V680Q976 785 928 844T784 904Q701 904 635 859T529 727T490 516L442 741H499Q515 865 566 947T698 1070T885 1112Q1052 1112 1136 1013T1220 734V205H1396V0H821V205H976Z"
/>
<glyph unicode="i" horiz-adv-x="758" d="M531 205H708V0H98V205H287V881H98V1086H531V205ZM259 1563H542V1297H259V1563Z" />
<glyph unicode="j" horiz-adv-x="676" d="M58 1086H511V-109Q511 -263 430 -352T168 -441Q23 -441 -52 -379T-150 -200L59 -146Q71 -191 95 -213T164 -236Q215 -236 241 -205T267 -109V881H58V1086ZM238 1563H521V1297H238V1563Z" />
<glyph unicode="k" horiz-adv-x="1438" d="M490 205H643V0H63V205H246V1375H63V1580H490V205ZM885 689L1259 205H1386V0H808V205H967L698 566L885 689ZM413 276L354 440L931 881H663V1086H1373V881H1232L413 276Z" />
<glyph unicode="l" horiz-adv-x="733" d="M496 205H683V0H63V205H252V1375H63V1580H496V205Z" />
<glyph unicode="m" horiz-adv-x="2152" d="M1539 0V205H1693V680Q1693 785 1645 844T1500 904Q1423 904 1361 862T1263 739T1226 542L1178 770H1235Q1258 941 1355 1026T1601 1112Q1769 1112 1853 1013T1937 734V205H2113V0H1539ZM88 0V205H270V881H88V1086H514V205H670V0H88ZM828
0V205H982V680Q982 785 934 844T788 904Q712 904 650 862T551 739T514 542L467 770H524Q547 941 644 1026T890 1112Q1057 1112 1141 1013T1226 734V205H1402V0H828Z" />
<glyph unicode="n" horiz-adv-x="1467" d="M521 205H678V0H88V205H277V881H88V1086H521V205ZM1007 205V677Q1007 782 958 843T810 904Q727 904 662 861T559 736T521 542L474 763H530Q547 878 597 954T726 1068T907 1107Q1074 1107 1162 1008T1251 725V205H1427V0H853V205H1007Z"
/>
<glyph unicode="o" horiz-adv-x="1356" d="M678 -21Q504 -21 373 50T169 248T96 539Q96 706 169 834T372 1034T678 1107Q853 1107 984 1035T1188 834T1261 539Q1261 374 1188 248T984 51T678 -21ZM678 198Q775 198 849 240T965 359T1007 539Q1007 643 966 721T850
843T678 887Q581 887 507 844T391 722T349 539Q349 436 391 360T507 241T678 198Z" />
<glyph unicode="p" horiz-adv-x="1468" d="M67 -420V-215H249V881H67V1086H493V714L487 576V521L493 390V-215H669V-420H67ZM853 -22Q730 -22 630 30T458 187T351 443L487 539Q487 437 524 360T631 238T803 193Q902 193 972 237T1081 360T1119 543Q1119 647 1080
725T969 848T803 892Q704 892 634 848T525 725T487 539L456 788H503Q522 887 569 958T691 1069T871 1108Q983 1108 1074 1066T1232 946T1334 766T1370 543Q1370 374 1307 247T1127 49T853 -22Z" />
<glyph unicode="q" horiz-adv-x="1389" d="M1218 -215H1396V-420H778V-215H974V408L980 508V571L974 708V894L1208 1116H1218V-215ZM646 1108Q771 1108 872 1068T1046 948T1154 754L980 543Q980 646 943 724T836 847T664 892Q561 892 491 849T385 727T349 541Q349
437 388 359T499 237T664 193Q763 193 834 237T942 359T980 543L1011 297H965Q945 199 899 128T777 17T597 -22Q485 -22 393 20T235 139T133 319T97 544Q97 713 164 840T355 1037T646 1108Z" />
<glyph unicode="r" horiz-adv-x="938" d="M521 205H700V0H88V205H277V881H88V1086H521V205ZM904 837Q884 842 862 845T817 848Q680 848 601 759T521 508L474 761H530Q543 875 583 950T688 1064T842 1102Q858 1102 873 1101T904 1096V837Z" />
<glyph unicode="s" horiz-adv-x="1148" d="M688 -20Q588 -20 519 9T410 91T359 216H313L351 345Q367 268 442 219T626 170Q715 170 760 203T805 302Q805 364 754 397T568 450Q322 485 216 574T109 803Q109 939 200 1022T458 1106Q552 1106 614 1078T710 996T753
868H799L763 744Q747 821 678 870T512 919Q434 919 394 887T354 807Q354 748 417 715T615 661Q850 627 950 541T1050 304Q1050 152 959 66T688 -20ZM107 0V345H351V0H107ZM763 744V1087H1007V744H763Z" />
<glyph unicode="t" horiz-adv-x="919" d="M461 320Q461 259 482 230T546 200Q589 200 611 230T634 320V425H846V322Q846 214 814 138T713 21T535 -20Q425 -20 355 21T251 139T217 320V881H41V1086H217V1364H461V1086H831L829 881H461V320Z" />
<glyph unicode="u" horiz-adv-x="1392" d="M923 881H743V1086H1167V205H1343V0H923V881ZM447 1086V407Q447 303 495 242T641 181Q719 181 783 223T885 347T923 544L970 319H914Q889 147 791 61T541 -26Q372 -26 288 74T203 353V881H39V1086H447Z" />
<glyph unicode="v" horiz-adv-x="1286" d="M752 1086H1255V881H1147L786 0H513L137 881H32V1086H565V881H403L759 0L567 236H751L579 0L915 881H752V1086Z" />
<glyph unicode="w" horiz-adv-x="1949" d="M1420 1086H1913V881H1806L1497 0H1217L907 881L1070 664H886L1049 881L762 0H473L143 881H35V1086H563V881H405L700 0L528 225H714L550 0L852 881H723V1086H1264V881H1139L1457 0L1276 225H1462L1310 0L1583 881H1420V1086Z" />
<glyph unicode="x" horiz-adv-x="1308" d="M1138 881L750 486L819 637V467L748 617L1147 205H1252V0H721V205H839L575 501L710 429H544L696 501L435 205H562V0H56V205H164L558 610L489 461V630L561 480L172 881H56V1086H588V881H478L734 596L598 669H765L612 596L866
881H747V1086H1252V881H1138Z" />
<glyph unicode="y" horiz-adv-x="1292" d="M743 1086H1259V881H1155L750 -115Q687 -267 561 -343T252 -420H107V-213H252Q349 -213 425 -174T532 -59L626 104L550 -77L152 881H33V1086H578V881H419L739 72L548 242H748L632 126L921 881H743V1086Z" />
<glyph unicode="z" horiz-adv-x="1171" d="M93 173L757 903V962L1071 912L411 182V117L93 173ZM1071 1086V912H339V715H106V1086H1071ZM856 369H1090V0H93V173H856V369Z" />
<glyph unicode="{" horiz-adv-x="877" d="M706 1408Q615 1408 570 1356T524 1211V885Q524 723 426 638T132 552V688Q296 688 296 870V1196Q296 1325 345 1420T487 1568T706 1621Q753 1621 796 1614T886 1593L840 1388Q800 1399 765 1403T706 1408ZM85 688H132V476H85V688ZM723
-258Q746 -258 776 -255T840 -243L885 -429Q822 -442 769 -449T667 -457Q487 -457 392 -351T296 -60V291Q296 384 255 430T132 476V659Q328 659 426 574T524 321V-31Q524 -258 723 -258Z" />
<glyph unicode="|" horiz-adv-x="686" d="M229 1580H457L459 -174H226L229 1580Z" />
<glyph unicode="}" horiz-adv-x="877" d="M171 -244Q262 -244 307 -192T353 -47V279Q353 441 451 526T745 612V476Q581 476 581 294V-32Q581 -161 532 -256T390 -404T171 -457Q124 -457 81 -450T-9 -429L37 -224Q77 -235 112 -239T171 -244ZM792 476H745V688H792V476ZM154
1422Q131 1422 101 1419T37 1407L-8 1593Q55 1606 108 1613T210 1621Q390 1621 485 1515T581 1224V873Q581 780 622 734T745 688V505Q549 505 451 590T353 843V1195Q353 1422 154 1422Z" />
<glyph unicode="~" horiz-adv-x="1253" d="M970 901L1178 879Q1159 702 1073 619T849 536Q767 536 703 561T573 630Q526 663 491 678T419 694Q363 694 328 658T283 549L75 573Q94 743 178 828T408 914Q492 914 555 888T682 818Q728 787 764 771T836 755Q891 755
926 792T970 901Z" />
<glyph unicode="&#xa0;" horiz-adv-x="586" />
<glyph unicode="&#xa1;" horiz-adv-x="664" d="M193 -424H487L441 670H238L193 -424ZM180 792H485V1086H180V792Z" />
<glyph unicode="&#xa2;" horiz-adv-x="1325" d="M648 1510H728V0H648V1510ZM1215 488Q1146 351 1010 273T691 194Q518 194 391 265T194 463T124 755Q124 920 190 1048T383 1249T693 1322Q858 1322 971 1264T1147 1099T1222 850H973Q961 927 925 985T829 1077T686
1111Q590 1111 520 1067T412 942T373 757Q373 656 412 579T523 458T695 414Q792 414 866 456T983 570L1215 488Z" />
<glyph unicode="&#xa3;" horiz-adv-x="1684" d="M1255 814V742H262V814H1255ZM1059 1531Q1326 1531 1447 1385T1581 969H1329Q1320 1132 1254 1214T1062 1296Q1004 1296 959 1278T884 1221T838 1126T822 990V421Q822 323 797 242T721 103T590 12T399 -20Q221 -20
138 53T54 262Q54 392 131 462T372 530L381 351Q259 351 259 258Q259 212 296 188T399 164Q498 164 534 214T570 346V994Q570 1119 599 1218T688 1386T840 1493T1059 1531ZM1619 582Q1624 552 1625 524T1627 462Q1626 223 1517 100T1180 -22Q1086 -21 1014 -3T884
46T779 113T690 187L623 238Q570 286 514 318T381 351L372 530Q467 530 538 506T668 445L741 422Q794 387 841 350T934 282T1032 231T1144 211Q1252 211 1313 279T1375 478Q1375 499 1374 523T1367 572L1619 582Z" />
<glyph unicode="&#xa4;" horiz-adv-x="1304" d="M653 200Q506 200 395 260T221 425T158 669Q158 808 220 915T394 1084T653 1145Q800 1145 911 1084T1085 916T1147 669Q1147 531 1085 426T912 260T653 200ZM653 403Q730 403 789 437T883 530T917 669Q917 750 883
812T790 908T653 943Q575 943 516 909T422 812T388 669Q388 590 422 531T515 437T653 403ZM347 510L494 363L246 113L97 262L347 510ZM1061 1222L1206 1077L958 827L811 974L1061 1222ZM493 973L348 828L99 1077L245 1223L493 973ZM1205 259L1062 116L812 364L957
509L1205 259Z" />
<glyph unicode="&#xa5;" horiz-adv-x="1544" d="M1263 684V612H279V684H1263ZM1263 507V435H279V507H1263ZM1392 1289L884 631H659L152 1289H46V1510H672V1289H454L851 759L681 846H877L731 759L1129 1289H887V1510H1497V1289H1392ZM896 792V221H1101V0H439V221H644V792H896Z"
/>
<glyph unicode="&#xa6;" horiz-adv-x="667" d="M229 485H438L440 -295H226L229 485ZM229 1510H438L440 730H226L229 1510Z" />
<glyph unicode="&#xa7;" horiz-adv-x="1309" d="M689 1192Q689 1111 727 1047T826 923T953 796T1081 644T1180 443T1218 171Q1218 3 1165 -115T1022 -308T816 -417T574 -452L474 -358Q548 -358 635 -332T802 -246T933 -89T984 154Q984 290 946 389T848 564T722
707T595 843T497 996T459 1195Q459 1283 490 1353T593 1464T785 1508L735 1601Q902 1601 1021 1545T1227 1379L1064 1248Q1012 1316 963 1350T856 1384Q778 1384 734 1330T689 1192ZM620 -45Q620 36 582 101T484 226T356 353T228 505T129 705T91 977Q91 1145 144
1263T287 1456T493 1566T735 1601L835 1506Q762 1506 674 1480T507 1395T377 1238T325 994Q325 859 363 760T461 584T588 440T714 304T812 150T850 -48Q850 -135 819 -205T716 -316T524 -360L574 -452Q410 -452 290 -397T82 -232L245 -101Q298 -169 348 -202T454
-235Q532 -235 576 -181T620 -45Z" />
<glyph unicode="&#xa8;" horiz-adv-x="815" d="M79 1555H337V1306H79V1555ZM477 1555H736V1306H477V1555Z" />
<glyph unicode="&#xa9;" horiz-adv-x="1762" d="M881 1538Q1059 1538 1205 1481T1458 1320T1623 1074T1681 759Q1681 527 1580 350T1298 73T881 -27Q703 -27 557 30T304 192T139 441T81 759Q81 931 139 1073T303 1320T557 1481T881 1538ZM881 164Q1054 164 1187
239T1394 449T1469 759Q1469 932 1395 1063T1187 1269T881 1343Q708 1343 576 1269T368 1064T293 759Q293 583 368 449T575 240T881 164ZM893 355Q772 355 683 404T544 541T495 743Q495 858 541 946T666 1084T845 1134Q919 1134 963 1107T1029 1030T1055 915H1087L1061
799Q1050 870 1006 915T887 960Q830 960 787 933T720 857T696 743Q696 681 720 634T788 561T894 534Q955 534 1000 557T1064 621L1233 541Q1193 455 1104 405T893 355ZM1061 799V1111H1252V799H1061Z" />
<glyph unicode="&#xaa;" horiz-adv-x="984" d="M741 676Q690 676 664 705T637 786V977L652 1006L643 1102L637 1159V1220Q637 1287 594 1321T469 1355Q393 1355 348 1325T289 1230L103 1263Q117 1349 161 1407T284 1495T477 1525Q652 1525 740 1454T829 1235V848H937V676H741ZM340
665Q215 665 148 725T80 897Q80 969 108 1017T194 1095T339 1143L683 1210V1099L377 1032Q323 1018 298 992T272 922Q272 875 302 852T391 829Q465 829 522 863T611 959T643 1102L683 919H630Q615 793 542 729T340 665Z" />
<glyph unicode="&#xab;" horiz-adv-x="1083" d="M294 577V571L608 117H358L96 507V641L358 1031H608L294 577ZM734 577V571L1048 117H798L536 507V641L798 1031H1048L734 577Z" />
<glyph unicode="&#xac;" horiz-adv-x="1026" d="M735 662V466H78V662H735ZM901 226H682V662H901V226Z" />
<glyph unicode="&#xad;" horiz-adv-x="732" d="M654 670V474H78V670H654Z" />
<glyph unicode="&#xae;" horiz-adv-x="1144" d="M572 1599Q713 1599 820 1541T989 1380T1050 1141Q1050 1003 990 898T822 734T572 675Q430 675 322 734T154 898T94 1140Q94 1277 154 1380T323 1541T572 1599ZM572 786Q678 786 759 831T885 957T931 1141Q931 1244
886 1322T759 1444T572 1488Q466 1488 385 1445T259 1323T213 1141Q213 1037 258 957T385 832T572 786ZM531 1374H607Q689 1374 733 1340T777 1247Q777 1205 756 1177T695 1136V1126L606 1102H476V1187H602Q639 1187 654 1199T670 1237Q670 1263 655 1274T604 1286H531V1374ZM754
1003H801V915H672L616 1074Q609 1092 603 1097T583 1102H562L635 1152Q671 1148 687 1137T712 1106L754 1003ZM520 1003H580V915H358V1003H417V1286H358V1374H564V1286H520V1003Z" />
<glyph unicode="&#xaf;" horiz-adv-x="819" d="M739 1536V1342H80V1536H739Z" />
<glyph unicode="&#xb0;" horiz-adv-x="726" d="M363 909Q266 909 193 949T79 1059T38 1220Q38 1310 79 1380T193 1490T363 1530Q461 1530 534 1490T648 1380T689 1219Q689 1128 648 1059T534 949T363 909ZM363 1070Q431 1070 472 1112T514 1219Q514 1287 473 1327T363
1368Q296 1368 254 1328T212 1219Q212 1154 254 1112T363 1070Z" />
<glyph unicode="&#xb1;" horiz-adv-x="1122" d="M450 471V803H118V999H450V1331H668V999H1002L1000 803H668V471H450ZM1004 313V117H119V313H1004Z" />
<glyph unicode="&#xb2;" horiz-adv-x="816" d="M434 1488Q480 1517 499 1541T518 1596Q518 1638 489 1665T409 1693Q357 1693 326 1662T291 1575L102 1585Q112 1718 194 1794T410 1870Q552 1870 634 1795T716 1610Q716 1531 668 1464T528 1350L382 1263Q305 1220
274 1165T242 1020H86Q86 1120 110 1193T180 1315T286 1397L434 1488ZM748 1257Q748 1132 692 1069T543 1006Q497 1006 465 1017T406 1040T347 1052Q326 1052 302 1045T257 1020H193L236 1179L276 1154Q299 1184 326 1195T380 1207Q406 1207 425 1200T464 1185T507
1177Q536 1177 547 1195T559 1257H748Z" />
<glyph unicode="&#xb3;" horiz-adv-x="758" d="M50 1272L242 1295Q252 1238 285 1205T376 1172Q429 1172 458 1197T488 1266Q488 1314 448 1344T339 1374V1480Q497 1480 591 1419T686 1240Q686 1138 609 1068T378 998Q230 998 151 1070T50 1272ZM68 1601Q79 1733
157 1799T368 1866Q505 1866 580 1801T656 1637Q656 1531 570 1470T339 1409V1515Q394 1515 427 1540T460 1608Q460 1645 435 1669T364 1693Q269 1693 262 1591L68 1601ZM287 1515H339V1374H287V1515Z" />
<glyph unicode="&#xb4;" horiz-adv-x="666" d="M447 1666L578 1491L189 1246L88 1385L447 1666Z" />
<glyph unicode="&#xb5;" horiz-adv-x="1392" d="M923 881H743V1086H1167V205H1343V0H923V881ZM447 579V407Q447 303 495 242T640 181Q719 181 783 223T885 347T923 544L970 328H914Q901 210 862 132T761 14T621 -26Q494 -26 429 68T364 332V579H447ZM203 -420V881H39V1086H447V-420H203Z"
/>
<glyph unicode="&#xb6;" horiz-adv-x="1586" d="M523 -420V-199H686V1510H938V-420H523ZM757 658H614Q450 658 343 697T174 800T89 941T64 1091Q64 1289 199 1399T602 1510H757V658ZM1480 -420H1068V1510H1480V1289H1320V-199H1480V-420Z" />
<glyph unicode="&#xb7;" horiz-adv-x="669" d="M182 728H487V434H182V728Z" />
<glyph unicode="&#xb8;" horiz-adv-x="679" d="M133 -300Q158 -311 194 -318T272 -325Q329 -325 357 -312T385 -274Q385 -253 367 -242T318 -230H168V-104H348Q479 -104 539 -148T599 -262Q599 -343 517 -391T290 -440Q225 -440 173 -429T80 -398L133 -300ZM275
47H372L265 -104H168L275 47Z" />
<glyph unicode="&#xb9;" horiz-adv-x="637" d="M292 1850H436V1186H587V1018H92V1186H244V1782L292 1850ZM99 1760H155Q202 1760 229 1784T262 1850H306L272 1676H238Q225 1630 198 1612T129 1593H99V1760Z" />
<glyph unicode="&#xba;" horiz-adv-x="1038" d="M518 659Q386 659 286 714T130 865T74 1089Q74 1217 130 1315T286 1470T518 1526Q651 1526 752 1470T909 1316T965 1089Q965 962 909 866T752 714T518 659ZM518 840Q591 840 646 871T732 957T763 1089Q763 1165
732 1222T646 1312T518 1344Q448 1344 393 1312T307 1223T276 1089Q276 1013 307 958T393 871T518 840Z" />
<glyph unicode="&#xbb;" horiz-adv-x="1083" d="M789 577V571L475 117H725L987 507V641L725 1031H475L789 577ZM349 577V571L35 117H285L547 507V641L285 1031H35L349 577Z" />
<glyph unicode="&#xbc;" horiz-adv-x="1828" d="M292 1508H436V844H587V676H92V844H244V1440L292 1508ZM99 1418H155Q202 1418 229 1442T262 1508H306L272 1334H238Q225 1288 198 1270T129 1251H99V1418ZM267 0L1385 1510H1600L482 0H267ZM1644 832V164H1754V0H1329V164H1455V737L1402
832H1644ZM1754 391V254H1085V391H1754ZM1402 832L1546 787L1219 331L1085 391L1402 832Z" />
<glyph unicode="&#xbd;" horiz-adv-x="1885" d="M292 1508H436V844H587V676H92V844H244V1440L292 1508ZM99 1418H155Q202 1418 229 1442T262 1508H306L272 1334H238Q225 1288 198 1270T129 1251H99V1418ZM267 0L1385 1510H1600L482 0H267ZM1504 468Q1550 497 1569
521T1588 576Q1588 618 1559 645T1479 673Q1427 673 1396 642T1361 555L1172 565Q1182 698 1264 774T1480 850Q1622 850 1704 775T1786 590Q1786 511 1738 444T1598 330L1452 243Q1375 200 1344 145T1312 0H1156Q1156 100 1180 173T1250 295T1356 377L1504 468ZM1818
237Q1818 112 1762 49T1613 -14Q1567 -14 1535 -3T1476 20T1417 32Q1396 32 1372 25T1327 0H1263L1306 159L1346 134Q1369 164 1396 175T1450 187Q1476 187 1495 180T1534 165T1577 157Q1606 157 1617 175T1629 237H1818Z" />
<glyph unicode="&#xbe;" horiz-adv-x="1861" d="M50 930L242 953Q252 896 285 863T376 830Q429 830 458 855T488 924Q488 972 448 1002T339 1032V1138Q497 1138 591 1077T686 898Q686 796 609 726T378 656Q230 656 151 728T50 930ZM68 1259Q79 1391 157 1457T368
1524Q505 1524 580 1459T656 1295Q656 1189 570 1128T339 1067V1173Q394 1173 427 1198T460 1266Q460 1303 435 1327T364 1351Q269 1351 262 1249L68 1259ZM287 1173H339V1032H287V1173ZM300 0L1418 1510H1633L515 0H300ZM1677 832V164H1787V0H1362V164H1488V737L1435
832H1677ZM1787 391V254H1118V391H1787ZM1435 832L1579 787L1252 331L1118 391L1435 832Z" />
<glyph unicode="&#xbf;" horiz-adv-x="1176" d="M1071 221Q1093 170 1103 121T1113 22Q1113 -123 1042 -231T848 -399T572 -459Q405 -459 286 -396T102 -225T37 17Q37 116 67 186T145 305T247 392T348 463T427 534T457 622V669H708V617Q708 533 679 475T603 372T505
290T407 215T332 130T302 18Q302 -46 333 -100T425 -188T572 -222Q653 -222 716 -192T817 -108T854 23Q854 50 848 77T830 135L1071 221ZM737 789H430V1072H737V789Z" />
<glyph unicode="&#xc0;" horiz-adv-x="1623" d="M1219 677V472H402V677H1219ZM1472 221H1599V0H935V221H1203L766 1355L902 1235H706L837 1355L400 221H672V0H24V221H152L663 1510H962L1472 221ZM657 2057L526 1882L915 1637L1016 1776L657 2057Z" />
<glyph unicode="&#xc1;" horiz-adv-x="1623" d="M1219 677V472H402V677H1219ZM1472 221H1599V0H935V221H1203L766 1355L902 1235H706L837 1355L400 221H672V0H24V221H152L663 1510H962L1472 221ZM965 2057L1096 1882L707 1637L606 1776L965 2057Z" />
<glyph unicode="&#xc2;" horiz-adv-x="1623" d="M1219 677V472H402V677H1219ZM1472 221H1599V0H935V221H1203L766 1355L902 1235H706L837 1355L400 221H672V0H24V221H152L663 1510H962L1472 221ZM888 1995L1188 1764L1091 1632L811 1797L531 1631L434 1763L734 1995H888Z" />
<glyph unicode="&#xc3;" horiz-adv-x="1623" d="M1219 677V472H402V677H1219ZM1472 221H1599V0H935V221H1203L766 1355L902 1235H706L837 1355L400 221H672V0H24V221H152L663 1510H962L1472 221ZM1000 1981L1170 1962Q1161 1820 1102 1749T940 1678Q884 1678 842
1698T757 1759Q728 1786 710 1796T674 1807Q640 1807 622 1778T599 1691L429 1710Q440 1851 498 1922T660 1994Q715 1994 758 1974T846 1912Q877 1883 894 1875T928 1866Q960 1866 978 1895T1000 1981Z" />
<glyph unicode="&#xc4;" horiz-adv-x="1623" d="M1219 677V472H402V677H1219ZM1472 221H1599V0H935V221H1203L766 1355L902 1235H706L837 1355L400 221H672V0H24V221H152L663 1510H962L1472 221ZM483 1946H741V1697H483V1946ZM881 1946H1140V1697H881V1946Z" />
<glyph unicode="&#xc5;" horiz-adv-x="1623" d="M1219 677V472H402V677H1219ZM1472 221H1599V0H935V221H1203L766 1355L902 1235H706L837 1355L400 221H672V0H24V221H152L663 1510H962L1472 221ZM811 1629Q688 1629 611 1701T534 1883Q534 1993 611 2064T811 2136Q936
2136 1012 2065T1089 1883Q1089 1773 1013 1701T811 1629ZM811 1765Q865 1765 897 1798T930 1883Q930 1936 898 1968T811 2001Q759 2001 726 1969T693 1883Q693 1831 726 1798T811 1765Z" />
<glyph unicode="&#xc6;" horiz-adv-x="2460" d="M910 0V221H1114V1289H394V1510H2338V1025H2086V1289H1366V221H2104V485H2356V0H910ZM4 0V221H136L753 1459H1014L413 221H649V0H4ZM423 467V674H1257V467H423ZM1251 658V864H1917V658H1251Z" />
<glyph unicode="&#xc7;" horiz-adv-x="1673" d="M852 -25Q683 -25 542 33T298 196T138 444T81 759Q81 930 137 1071T293 1316T530 1476T827 1533Q977 1533 1084 1482T1254 1333T1338 1093H1405L1347 912Q1306 1084 1174 1186T853 1289Q704 1289 590 1222T412 1036T348
759Q348 640 384 541T488 370T647 259T852 219Q978 219 1079 268T1248 407T1341 618L1600 569Q1564 390 1461 257T1203 49T852 -25ZM1347 912V1510H1599V912H1347ZM653 -300Q678 -311 714 -318T792 -325Q849 -325 877 -312T905 -274Q905 -253 887 -242T838 -230H688V-104H868Q999
-104 1059 -148T1119 -262Q1119 -343 1037 -391T810 -440Q745 -440 693 -429T600 -398L653 -300ZM795 47H892L785 -104H688L795 47Z" />
<glyph unicode="&#xc8;" horiz-adv-x="1604" d="M1061 864V658H395V864H1061ZM1247 485H1499V0H54V221H258V1289H54V1510H1481V1025H1229V1289H510V221H1247V485ZM654 2057L523 1882L912 1637L1013 1776L654 2057Z" />
<glyph unicode="&#xc9;" horiz-adv-x="1604" d="M1061 864V658H395V864H1061ZM1247 485H1499V0H54V221H258V1289H54V1510H1481V1025H1229V1289H510V221H1247V485ZM962 2057L1093 1882L704 1637L603 1776L962 2057Z" />
<glyph unicode="&#xca;" horiz-adv-x="1604" d="M1061 864V658H395V864H1061ZM1247 485H1499V0H54V221H258V1289H54V1510H1481V1025H1229V1289H510V221H1247V485ZM885 1995L1185 1764L1088 1632L808 1797L528 1631L431 1763L731 1995H885Z" />
<glyph unicode="&#xcb;" horiz-adv-x="1604" d="M1061 864V658H395V864H1061ZM1247 485H1499V0H54V221H258V1289H54V1510H1481V1025H1229V1289H510V221H1247V485ZM480 1946H738V1697H480V1946ZM878 1946H1137V1697H878V1946Z" />
<glyph unicode="&#xcc;" horiz-adv-x="767" d="M54 1289V1510H713V1289H510V221H713V0H54V221H258V1289H54ZM231 2057L100 1882L489 1637L590 1776L231 2057Z" />
<glyph unicode="&#xcd;" horiz-adv-x="767" d="M54 1289V1510H713V1289H510V221H713V0H54V221H258V1289H54ZM539 2057L670 1882L281 1637L180 1776L539 2057Z" />
<glyph unicode="&#xce;" horiz-adv-x="767" d="M54 1289V1510H713V1289H510V221H713V0H54V221H258V1289H54ZM462 1995L762 1764L665 1632L385 1797L105 1631L8 1763L308 1995H462Z" />
<glyph unicode="&#xcf;" horiz-adv-x="767" d="M54 1289V1510H713V1289H510V221H713V0H54V221H258V1289H54ZM57 1946H315V1697H57V1946ZM455 1946H714V1697H455V1946Z" />
<glyph unicode="&#xd0;" horiz-adv-x="1694" d="M907 864V658H113V864H907ZM700 0V221H820Q977 221 1096 289T1281 479T1348 760Q1348 916 1282 1035T1096 1222T820 1289H700V1510H822Q1057 1510 1235 1414T1513 1149T1613 759Q1613 535 1513 364T1235 97T822
0H700ZM79 0V221H283V1289H79V1510H766V1289H535V221H766V0H79Z" />
<glyph unicode="&#xd1;" horiz-adv-x="1786" d="M1234 0L324 1510H608L1518 0H1234ZM54 1289V1510H606L580 1220H481V221H684V0H54V221H257V1289H54ZM1127 1289V1510H1757V1289H1554V0H1284L1198 340H1330V1289H1127ZM1092 1981L1262 1962Q1253 1820 1194 1749T1032
1678Q976 1678 934 1698T849 1759Q820 1786 802 1796T766 1807Q732 1807 714 1778T691 1691L521 1710Q532 1851 590 1922T752 1994Q807 1994 850 1974T938 1912Q969 1883 986 1875T1020 1866Q1052 1866 1070 1895T1092 1981Z" />
<glyph unicode="&#xd2;" horiz-adv-x="1743" d="M871 -25Q696 -25 551 32T301 194T139 442T81 759Q81 930 138 1072T301 1317T551 1478T871 1535Q1047 1535 1191 1478T1441 1318T1604 1072T1662 759Q1662 586 1605 443T1442 194T1192 32T871 -25ZM871 220Q1027
220 1145 288T1330 478T1397 759Q1397 917 1330 1037T1145 1223T872 1290Q716 1290 598 1224T413 1037T346 759Q346 600 412 479T597 289T871 220ZM717 2057L586 1882L975 1637L1076 1776L717 2057Z" />
<glyph unicode="&#xd3;" horiz-adv-x="1743" d="M871 -25Q696 -25 551 32T301 194T139 442T81 759Q81 930 138 1072T301 1317T551 1478T871 1535Q1047 1535 1191 1478T1441 1318T1604 1072T1662 759Q1662 586 1605 443T1442 194T1192 32T871 -25ZM871 220Q1027
220 1145 288T1330 478T1397 759Q1397 917 1330 1037T1145 1223T872 1290Q716 1290 598 1224T413 1037T346 759Q346 600 412 479T597 289T871 220ZM1025 2057L1156 1882L767 1637L666 1776L1025 2057Z" />
<glyph unicode="&#xd4;" horiz-adv-x="1743" d="M871 -25Q696 -25 551 32T301 194T139 442T81 759Q81 930 138 1072T301 1317T551 1478T871 1535Q1047 1535 1191 1478T1441 1318T1604 1072T1662 759Q1662 586 1605 443T1442 194T1192 32T871 -25ZM871 220Q1027
220 1145 288T1330 478T1397 759Q1397 917 1330 1037T1145 1223T872 1290Q716 1290 598 1224T413 1037T346 759Q346 600 412 479T597 289T871 220ZM948 1995L1248 1764L1151 1632L871 1797L591 1631L494 1763L794 1995H948Z" />
<glyph unicode="&#xd5;" horiz-adv-x="1743" d="M871 -25Q696 -25 551 32T301 194T139 442T81 759Q81 930 138 1072T301 1317T551 1478T871 1535Q1047 1535 1191 1478T1441 1318T1604 1072T1662 759Q1662 586 1605 443T1442 194T1192 32T871 -25ZM871 220Q1027
220 1145 288T1330 478T1397 759Q1397 917 1330 1037T1145 1223T872 1290Q716 1290 598 1224T413 1037T346 759Q346 600 412 479T597 289T871 220ZM1061 1981L1231 1962Q1222 1820 1163 1749T1001 1678Q945 1678 903 1698T818 1759Q789 1786 771 1796T735 1807Q701
1807 683 1778T660 1691L490 1710Q501 1851 559 1922T721 1994Q776 1994 819 1974T907 1912Q938 1883 955 1875T989 1866Q1021 1866 1039 1895T1061 1981Z" />
<glyph unicode="&#xd6;" horiz-adv-x="1743" d="M871 -25Q696 -25 551 32T301 194T139 442T81 759Q81 930 138 1072T301 1317T551 1478T871 1535Q1047 1535 1191 1478T1441 1318T1604 1072T1662 759Q1662 586 1605 443T1442 194T1192 32T871 -25ZM871 220Q1027
220 1145 288T1330 478T1397 759Q1397 917 1330 1037T1145 1223T872 1290Q716 1290 598 1224T413 1037T346 759Q346 600 412 479T597 289T871 220ZM543 1946H801V1697H543V1946ZM941 1946H1200V1697H941V1946Z" />
<glyph unicode="&#xd7;" horiz-adv-x="1102" d="M838 296L552 581L264 296L122 438L409 724L122 1012L264 1154L552 867L840 1154L980 1011L695 724L980 438L838 296Z" />
<glyph unicode="&#xd8;" horiz-adv-x="1743" d="M1498 1514L1622 1390L228 -4L104 120L1498 1514ZM871 -25Q696 -25 551 32T301 194T139 442T81 759Q81 930 138 1072T301 1317T551 1478T871 1535Q1047 1535 1191 1478T1441 1318T1604 1072T1662 759Q1662 586 1605
443T1442 194T1192 32T871 -25ZM871 220Q1027 220 1145 288T1330 478T1397 759Q1397 917 1330 1037T1145 1223T872 1290Q716 1290 598 1224T413 1037T346 759Q346 600 412 479T597 289T871 220Z" />
<glyph unicode="&#xd9;" horiz-adv-x="1675" d="M1010 1510H1650V1289H1454V585Q1454 396 1380 260T1167 51T837 -22Q646 -22 508 51T296 260T221 585V1289H25V1510H682V1289H476V588Q476 472 520 389T646 263T843 219Q960 219 1043 263T1171 389T1216 588V1289H1010V1510ZM686
2057L555 1882L944 1637L1045 1776L686 2057Z" />
<glyph unicode="&#xda;" horiz-adv-x="1675" d="M1010 1510H1650V1289H1454V585Q1454 396 1380 260T1167 51T837 -22Q646 -22 508 51T296 260T221 585V1289H25V1510H682V1289H476V588Q476 472 520 389T646 263T843 219Q960 219 1043 263T1171 389T1216 588V1289H1010V1510ZM994
2057L1125 1882L736 1637L635 1776L994 2057Z" />
<glyph unicode="&#xdb;" horiz-adv-x="1675" d="M1010 1510H1650V1289H1454V585Q1454 396 1380 260T1167 51T837 -22Q646 -22 508 51T296 260T221 585V1289H25V1510H682V1289H476V588Q476 472 520 389T646 263T843 219Q960 219 1043 263T1171 389T1216 588V1289H1010V1510ZM917
1995L1217 1764L1120 1632L840 1797L560 1631L463 1763L763 1995H917Z" />
<glyph unicode="&#xdc;" horiz-adv-x="1675" d="M1010 1510H1650V1289H1454V585Q1454 396 1380 260T1167 51T837 -22Q646 -22 508 51T296 260T221 585V1289H25V1510H682V1289H476V588Q476 472 520 389T646 263T843 219Q960 219 1043 263T1171 389T1216 588V1289H1010V1510ZM512
1946H770V1697H512V1946ZM910 1946H1169V1697H910V1946Z" />
<glyph unicode="&#xdd;" horiz-adv-x="1499" d="M1369 1289L862 631H637L130 1289H24V1510H650V1289H432L829 759L659 846H855L709 759L1106 1289H864V1510H1475V1289H1369ZM874 792V221H1079V0H417V221H622V792H874ZM902 2057L1033 1882L644 1637L543 1776L902 2057Z" />
<glyph unicode="&#xde;" horiz-adv-x="1395" d="M54 1289V1510H713V1289H510V221H713V0H54V221H258V1289H54ZM432 944V1154H803Q1066 1154 1198 1050T1331 759Q1331 693 1308 624T1225 497T1059 402T790 365H454V576H790Q928 576 1000 621T1072 759Q1072 855 994
899T787 944H432Z" />
<glyph unicode="&#xdf;" horiz-adv-x="1498" d="M739 893Q816 894 869 917T956 977T1006 1059T1022 1153Q1022 1222 993 1273T910 1353T781 1382Q709 1382 653 1353T565 1261T532 1096V0H88V205H288V881H88V1086H288V1117Q288 1265 348 1373T519 1541T781 1600Q911
1600 1023 1556T1203 1425T1272 1206Q1272 1135 1250 1083T1185 996T1084 938T952 900V786L739 893ZM750 219Q790 204 826 199T893 193Q1008 193 1086 257T1164 437Q1164 557 1082 622T868 687H739V893H888Q1003 893 1099 863T1265 775T1374 632T1413 434Q1413
287 1350 186T1172 34T906 -18Q843 -18 788 -9T678 21L750 219Z" />
<glyph unicode="&#xe0;" horiz-adv-x="1281" d="M958 0Q898 0 866 37T833 142V393L853 433L842 555L833 625V707Q833 770 807 811T731 874T608 895Q504 895 443 853T364 723L135 764Q152 877 211 954T372 1070T624 1109Q773 1109 874 1069T1026 944T1077 731V205H1220V0H958ZM452
-16Q281 -16 193 62T104 287Q104 424 185 497T447 605L891 693V550L504 465Q429 449 394 413T358 316Q358 249 399 215T519 181Q614 181 687 227T801 357T842 555L893 319H825Q803 151 708 68T452 -16ZM471 1666L340 1491L729 1246L830 1385L471 1666Z" />
<glyph unicode="&#xe1;" horiz-adv-x="1281" d="M958 0Q898 0 866 37T833 142V393L853 433L842 555L833 625V707Q833 770 807 811T731 874T608 895Q504 895 443 853T364 723L135 764Q152 877 211 954T372 1070T624 1109Q773 1109 874 1069T1026 944T1077 731V205H1220V0H958ZM452
-16Q281 -16 193 62T104 287Q104 424 185 497T447 605L891 693V550L504 465Q429 449 394 413T358 316Q358 249 399 215T519 181Q614 181 687 227T801 357T842 555L893 319H825Q803 151 708 68T452 -16ZM779 1666L910 1491L521 1246L420 1385L779 1666Z" />
<glyph unicode="&#xe2;" horiz-adv-x="1281" d="M958 0Q898 0 866 37T833 142V393L853 433L842 555L833 625V707Q833 770 807 811T731 874T608 895Q504 895 443 853T364 723L135 764Q152 877 211 954T372 1070T624 1109Q773 1109 874 1069T1026 944T1077 731V205H1220V0H958ZM452
-16Q281 -16 193 62T104 287Q104 424 185 497T447 605L891 693V550L504 465Q429 449 394 413T358 316Q358 249 399 215T519 181Q614 181 687 227T801 357T842 555L893 319H825Q803 151 708 68T452 -16ZM702 1604L1002 1373L905 1241L625 1406L345 1240L248 1372L548
1604H702Z" />
<glyph unicode="&#xe3;" horiz-adv-x="1281" d="M958 0Q898 0 866 37T833 142V393L853 433L842 555L833 625V707Q833 770 807 811T731 874T608 895Q504 895 443 853T364 723L135 764Q152 877 211 954T372 1070T624 1109Q773 1109 874 1069T1026 944T1077 731V205H1220V0H958ZM452
-16Q281 -16 193 62T104 287Q104 424 185 497T447 605L891 693V550L504 465Q429 449 394 413T358 316Q358 249 399 215T519 181Q614 181 687 227T801 357T842 555L893 319H825Q803 151 708 68T452 -16ZM814 1590L984 1571Q975 1429 916 1358T754 1287Q698 1287
656 1307T571 1368Q542 1395 524 1405T488 1416Q454 1416 436 1387T413 1300L243 1319Q254 1460 312 1531T474 1603Q529 1603 572 1583T660 1521Q691 1492 708 1484T742 1475Q774 1475 792 1504T814 1590Z" />
<glyph unicode="&#xe4;" horiz-adv-x="1281" d="M958 0Q898 0 866 37T833 142V393L853 433L842 555L833 625V707Q833 770 807 811T731 874T608 895Q504 895 443 853T364 723L135 764Q152 877 211 954T372 1070T624 1109Q773 1109 874 1069T1026 944T1077 731V205H1220V0H958ZM452
-16Q281 -16 193 62T104 287Q104 424 185 497T447 605L891 693V550L504 465Q429 449 394 413T358 316Q358 249 399 215T519 181Q614 181 687 227T801 357T842 555L893 319H825Q803 151 708 68T452 -16ZM297 1555H555V1306H297V1555ZM695 1555H954V1306H695V1555Z"
/>
<glyph unicode="&#xe5;" horiz-adv-x="1281" d="M958 0Q898 0 866 37T833 142V393L853 433L842 555L833 625V707Q833 770 807 811T731 874T608 895Q504 895 443 853T364 723L135 764Q152 877 211 954T372 1070T624 1109Q773 1109 874 1069T1026 944T1077 731V205H1220V0H958ZM452
-16Q281 -16 193 62T104 287Q104 424 185 497T447 605L891 693V550L504 465Q429 449 394 413T358 316Q358 249 399 215T519 181Q614 181 687 227T801 357T842 555L893 319H825Q803 151 708 68T452 -16ZM625 1238Q502 1238 425 1310T348 1492Q348 1602 425 1673T625
1745Q750 1745 826 1674T903 1492Q903 1382 827 1310T625 1238ZM625 1374Q679 1374 711 1407T744 1492Q744 1545 712 1577T625 1610Q573 1610 540 1578T507 1492Q507 1440 540 1407T625 1374Z" />
<glyph unicode="&#xe6;" horiz-adv-x="2016" d="M1401 -21Q1250 -21 1135 35T948 194T854 432L1004 780H1091Q1112 879 1155 952T1268 1066T1439 1107Q1573 1107 1683 1035T1860 835T1926 539Q1926 524 1926 508T1924 475H1681Q1683 491 1684 509T1685 553Q1685
653 1651 730T1550 851T1391 895Q1302 895 1235 851T1130 726T1092 539Q1092 438 1129 361T1236 239T1403 195Q1491 195 1560 235T1668 344L1898 268Q1832 134 1703 57T1401 -21ZM453 -16Q281 -16 193 62T104 290Q104 435 192 505T447 607L906 693V550L504 467Q436
453 397 417T358 317Q358 243 403 212T519 181Q576 181 635 200T744 262T826 378T857 555L936 340H868Q841 156 734 70T453 -16ZM1093 425L868 426L857 555L849 649V699Q849 774 818 817T733 877T616 895Q526 895 455 858T360 715L141 755Q154 851 207 931T364
1060T636 1109Q771 1109 872 1074T1029 956T1085 731L1093 425ZM999 475V626H1811L1860 475H999Z" />
<glyph unicode="&#xe7;" horiz-adv-x="1287" d="M678 -21Q501 -21 372 50T172 247T101 539Q101 665 139 768T247 948T412 1065T622 1107Q727 1107 793 1074T894 979T937 832H992L946 655Q936 727 900 781T805 865T668 895Q572 895 501 851T390 727T350 542Q350
440 390 363T504 242T681 198Q784 198 857 242T960 361L1192 273Q1140 136 1005 58T678 -21ZM946 655V1086H1190V655H946ZM470 -300Q495 -311 531 -318T609 -325Q666 -325 694 -312T722 -274Q722 -253 704 -242T655 -230H505V-104H685Q816 -104 876 -148T936 -262Q936
-343 854 -391T627 -440Q562 -440 510 -429T417 -398L470 -300ZM612 47H709L602 -104H505L612 47Z" />
<glyph unicode="&#xe8;" horiz-adv-x="1298" d="M668 -21Q492 -21 365 50T168 248T99 539Q99 706 168 834T363 1034T658 1107Q829 1107 952 1035T1141 835T1208 539Q1208 511 1208 494T1205 464H964Q966 483 967 504T968 553Q968 653 932 730T827 851T660 895Q567
895 497 851T387 726T348 539Q348 439 386 362T496 242T668 198Q771 198 845 245T954 373L1188 296Q1128 149 991 64T668 -21ZM254 464V635H1093L1140 464H254ZM504 1666L373 1491L762 1246L863 1385L504 1666Z" />
<glyph unicode="&#xe9;" horiz-adv-x="1298" d="M668 -21Q492 -21 365 50T168 248T99 539Q99 706 168 834T363 1034T658 1107Q829 1107 952 1035T1141 835T1208 539Q1208 511 1208 494T1205 464H964Q966 483 967 504T968 553Q968 653 932 730T827 851T660 895Q567
895 497 851T387 726T348 539Q348 439 386 362T496 242T668 198Q771 198 845 245T954 373L1188 296Q1128 149 991 64T668 -21ZM254 464V635H1093L1140 464H254ZM812 1666L943 1491L554 1246L453 1385L812 1666Z" />
<glyph unicode="&#xea;" horiz-adv-x="1298" d="M668 -21Q492 -21 365 50T168 248T99 539Q99 706 168 834T363 1034T658 1107Q829 1107 952 1035T1141 835T1208 539Q1208 511 1208 494T1205 464H964Q966 483 967 504T968 553Q968 653 932 730T827 851T660 895Q567
895 497 851T387 726T348 539Q348 439 386 362T496 242T668 198Q771 198 845 245T954 373L1188 296Q1128 149 991 64T668 -21ZM254 464V635H1093L1140 464H254ZM735 1604L1035 1373L938 1241L658 1406L378 1240L281 1372L581 1604H735Z" />
<glyph unicode="&#xeb;" horiz-adv-x="1298" d="M668 -21Q492 -21 365 50T168 248T99 539Q99 706 168 834T363 1034T658 1107Q829 1107 952 1035T1141 835T1208 539Q1208 511 1208 494T1205 464H964Q966 483 967 504T968 553Q968 653 932 730T827 851T660 895Q567
895 497 851T387 726T348 539Q348 439 386 362T496 242T668 198Q771 198 845 245T954 373L1188 296Q1128 149 991 64T668 -21ZM254 464V635H1093L1140 464H254ZM329 1555H587V1306H329V1555ZM727 1555H986V1306H727V1555Z" />
<glyph unicode="&#xec;" horiz-adv-x="758" d="M531 205H708V0H98V205H287V881H98V1086H531V205ZM247 1666L116 1491L505 1246L606 1385L247 1666Z" />
<glyph unicode="&#xed;" horiz-adv-x="758" d="M531 205H708V0H98V205H287V881H98V1086H531V205ZM555 1666L686 1491L297 1246L196 1385L555 1666Z" />
<glyph unicode="&#xee;" horiz-adv-x="758" d="M531 205H708V0H98V205H287V881H98V1086H531V205ZM734 1604L1034 1373L937 1241L657 1406L377 1240L280 1372L580 1604H734Z" />
<glyph unicode="&#xef;" horiz-adv-x="758" d="M531 205H708V0H98V205H287V881H98V1086H531V205ZM329 1555H587V1306H329V1555ZM727 1555H986V1306H727V1555Z" />
<glyph unicode="&#xf0;" horiz-adv-x="1360" d="M593 1092Q689 1091 757 1059T876 961T963 797L1012 811L1254 589Q1254 434 1209 316T1072 117Q995 48 897 14T682 -20Q502 -20 371 51T168 248T96 539Q96 700 158 825T333 1022T593 1092ZM678 886Q581 886 507
843T391 721T349 543Q349 440 390 363T505 242T673 199Q771 199 846 245T962 370T1004 546Q1004 642 963 719T848 841T678 886ZM643 1662Q834 1532 970 1359T1180 988T1254 589L1004 546Q1004 749 933 929T742 1254T471 1500L643 1662ZM355 1124L288 1278L1069
1600L1136 1446L355 1124Z" />
<glyph unicode="&#xf1;" horiz-adv-x="1467" d="M521 205H678V0H88V205H277V881H88V1086H521V205ZM1007 205V677Q1007 782 958 843T810 904Q727 904 662 861T559 736T521 542L474 763H530Q547 878 597 954T726 1068T907 1107Q1074 1107 1162 1008T1251 725V205H1427V0H853V205H1007ZM950
1590L1120 1571Q1111 1429 1052 1358T890 1287Q834 1287 792 1307T707 1368Q678 1395 660 1405T624 1416Q590 1416 572 1387T549 1300L379 1319Q390 1460 448 1531T610 1603Q665 1603 708 1583T796 1521Q827 1492 844 1484T878 1475Q910 1475 928 1504T950 1590Z"
/>
<glyph unicode="&#xf2;" horiz-adv-x="1356" d="M678 -21Q504 -21 373 50T169 248T96 539Q96 706 169 834T372 1034T678 1107Q853 1107 984 1035T1188 834T1261 539Q1261 374 1188 248T984 51T678 -21ZM678 198Q775 198 849 240T965 359T1007 539Q1007 643 966
721T850 843T678 887Q581 887 507 844T391 722T349 539Q349 436 391 360T507 241T678 198ZM524 1666L393 1491L782 1246L883 1385L524 1666Z" />
<glyph unicode="&#xf3;" horiz-adv-x="1356" d="M678 -21Q504 -21 373 50T169 248T96 539Q96 706 169 834T372 1034T678 1107Q853 1107 984 1035T1188 834T1261 539Q1261 374 1188 248T984 51T678 -21ZM678 198Q775 198 849 240T965 359T1007 539Q1007 643 966
721T850 843T678 887Q581 887 507 844T391 722T349 539Q349 436 391 360T507 241T678 198ZM832 1666L963 1491L574 1246L473 1385L832 1666Z" />
<glyph unicode="&#xf4;" horiz-adv-x="1356" d="M678 -21Q504 -21 373 50T169 248T96 539Q96 706 169 834T372 1034T678 1107Q853 1107 984 1035T1188 834T1261 539Q1261 374 1188 248T984 51T678 -21ZM678 198Q775 198 849 240T965 359T1007 539Q1007 643 966
721T850 843T678 887Q581 887 507 844T391 722T349 539Q349 436 391 360T507 241T678 198ZM755 1604L1055 1373L958 1241L678 1406L398 1240L301 1372L601 1604H755Z" />
<glyph unicode="&#xf5;" horiz-adv-x="1356" d="M678 -21Q504 -21 373 50T169 248T96 539Q96 706 169 834T372 1034T678 1107Q853 1107 984 1035T1188 834T1261 539Q1261 374 1188 248T984 51T678 -21ZM678 198Q775 198 849 240T965 359T1007 539Q1007 643 966
721T850 843T678 887Q581 887 507 844T391 722T349 539Q349 436 391 360T507 241T678 198ZM867 1590L1037 1571Q1028 1429 969 1358T807 1287Q751 1287 709 1307T624 1368Q595 1395 577 1405T541 1416Q507 1416 489 1387T466 1300L296 1319Q307 1460 365 1531T527
1603Q582 1603 625 1583T713 1521Q744 1492 761 1484T795 1475Q827 1475 845 1504T867 1590Z" />
<glyph unicode="&#xf6;" horiz-adv-x="1356" d="M678 -21Q504 -21 373 50T169 248T96 539Q96 706 169 834T372 1034T678 1107Q853 1107 984 1035T1188 834T1261 539Q1261 374 1188 248T984 51T678 -21ZM678 198Q775 198 849 240T965 359T1007 539Q1007 643 966
721T850 843T678 887Q581 887 507 844T391 722T349 539Q349 436 391 360T507 241T678 198ZM350 1555H608V1306H350V1555ZM748 1555H1007V1306H748V1555Z" />
<glyph unicode="&#xf7;" horiz-adv-x="1194" d="M1116 822V626H78V822H1116ZM438 529H743V246H438V529ZM438 1202H743V919H438V1202Z" />
<glyph unicode="&#xf8;" horiz-adv-x="1377" d="M1153 1133L1264 1028L227 -50L118 57L1153 1133ZM699 -21Q524 -21 393 50T189 248T116 539Q116 706 189 834T393 1034T698 1107Q873 1107 1004 1035T1208 834T1281 539Q1281 374 1208 248T1004 51T699 -21ZM698
198Q796 198 870 240T986 359T1028 539Q1028 643 986 721T870 843T698 887Q601 887 527 844T411 722T369 539Q369 436 411 360T527 241T698 198Z" />
<glyph unicode="&#xf9;" horiz-adv-x="1392" d="M923 881H743V1086H1167V205H1343V0H923V881ZM447 1086V407Q447 303 495 242T641 181Q719 181 783 223T885 347T923 544L970 319H914Q889 147 791 61T541 -26Q372 -26 288 74T203 353V881H39V1086H447ZM492 1666L361
1491L750 1246L851 1385L492 1666Z" />
<glyph unicode="&#xfa;" horiz-adv-x="1392" d="M923 881H743V1086H1167V205H1343V0H923V881ZM447 1086V407Q447 303 495 242T641 181Q719 181 783 223T885 347T923 544L970 319H914Q889 147 791 61T541 -26Q372 -26 288 74T203 353V881H39V1086H447ZM800 1666L931
1491L542 1246L441 1385L800 1666Z" />
<glyph unicode="&#xfb;" horiz-adv-x="1392" d="M923 881H743V1086H1167V205H1343V0H923V881ZM447 1086V407Q447 303 495 242T641 181Q719 181 783 223T885 347T923 544L970 319H914Q889 147 791 61T541 -26Q372 -26 288 74T203 353V881H39V1086H447ZM723 1604L1023
1373L926 1241L646 1406L366 1240L269 1372L569 1604H723Z" />
<glyph unicode="&#xfc;" horiz-adv-x="1392" d="M923 881H743V1086H1167V205H1343V0H923V881ZM447 1086V407Q447 303 495 242T641 181Q719 181 783 223T885 347T923 544L970 319H914Q889 147 791 61T541 -26Q372 -26 288 74T203 353V881H39V1086H447ZM318 1555H576V1306H318V1555ZM716
1555H975V1306H716V1555Z" />
<glyph unicode="&#xfd;" horiz-adv-x="1292" d="M743 1086H1259V881H1155L750 -115Q687 -267 561 -343T252 -420H107V-213H252Q349 -213 425 -174T532 -59L626 104L550 -77L152 881H33V1086H578V881H419L739 72L548 242H748L632 126L921 881H743V1086ZM801 1666L932
1491L543 1246L442 1385L801 1666Z" />
<glyph unicode="&#xfe;" horiz-adv-x="1394" d="M-7 -420V-215H176V1375H-7V1580H420V714L414 610V483L420 407V-215H595V-420H-7ZM779 -22Q656 -22 556 30T384 187T278 443L414 539Q414 437 450 360T558 238T729 193Q828 193 899 237T1007 360T1045 543Q1045
647 1006 725T895 848T729 892Q630 892 560 848T452 725T414 539L383 788H429Q449 887 495 958T617 1069T797 1108Q909 1108 1000 1066T1158 946T1261 766T1297 543Q1297 374 1233 247T1053 49T779 -22Z" />
<glyph unicode="&#xff;" horiz-adv-x="1292" d="M743 1086H1259V881H1155L750 -115Q687 -267 561 -343T252 -420H107V-213H252Q349 -213 425 -174T532 -59L626 104L550 -77L152 881H33V1086H578V881H419L739 72L548 242H748L632 126L921 881H743V1086ZM318 1555H576V1306H318V1555ZM716
1555H975V1306H716V1555Z" />
<glyph unicode="&#x2013;" horiz-adv-x="1155" d="M1078 662V466H78V662H1078Z" />
<glyph unicode="&#x2014;" horiz-adv-x="2155" d="M2078 662V466H78V662H2078Z" />
<glyph unicode="&#x2018;" horiz-adv-x="577" d="M441 895H136V1189H441V895ZM286 967H136V1258Q136 1388 213 1462T432 1538V1400Q363 1400 325 1366T286 1260V967Z" />
<glyph unicode="&#x2019;" horiz-adv-x="577" d="M136 1514H441V1220H136V1514ZM291 1442H441V1151Q441 1021 364 947T145 871V1009Q214 1009 252 1043T291 1149V1442Z" />
<glyph unicode="&#x201a;" horiz-adv-x="577" d="M136 294H441V0H136V294ZM291 222H441V-69Q441 -199 364 -273T145 -349V-211Q214 -211 252 -177T291 -71V222Z" />
<glyph unicode="&#x201c;" horiz-adv-x="985" d="M441 895H136V1189H441V895ZM286 967H136V1258Q136 1388 213 1462T432 1538V1400Q363 1400 325 1366T286 1260V967ZM849 895H544V1189H849V895ZM694 967H544V1258Q544 1388 621 1462T840 1538V1400Q771 1400 733
1366T694 1260V967Z" />
<glyph unicode="&#x201d;" horiz-adv-x="985" d="M136 1514H441V1220H136V1514ZM291 1442H441V1151Q441 1021 364 947T145 871V1009Q214 1009 252 1043T291 1149V1442ZM544 1514H849V1220H544V1514ZM699 1442H849V1151Q849 1021 772 947T553 871V1009Q622 1009
660 1043T699 1149V1442Z" />
<glyph unicode="&#x201e;" horiz-adv-x="985" d="M136 294H441V0H136V294ZM291 222H441V-69Q441 -199 364 -273T145 -349V-211Q214 -211 252 -177T291 -71V222ZM544 294H849V0H544V294ZM699 222H849V-69Q849 -199 772 -273T553 -349V-211Q622 -211 660 -177T699 -71V222Z" />
<glyph unicode="&#x2022;" horiz-adv-x="1050" d="M271 804H779V303H271V804Z" />
<glyph unicode="&#x2039;" horiz-adv-x="643" d="M294 577V571L608 117H358L96 507V641L358 1031H608L294 577Z" />
<glyph unicode="&#x203a;" horiz-adv-x="643" d="M349 577V571L35 117H285L547 507V641L285 1031H35L349 577Z" />
</font>
</defs>
</svg>
